
<svg width="20px" height="20px" viewBox="0 0 20 20" version="1.1" xmlns="http://www.w3.org/2000/svg" xmlns:xlink="http://www.w3.org/1999/xlink">

    <g stroke="none" stroke-width="1" fill="none" fill-rule="evenodd">
        <g transform="translate(-1693.000000, -611.000000)" fill="#FFFFFF">
            <g transform="translate(115.000000, 561.000000)">
                <g  transform="translate(1473.000000, 50.000000)">
                    <g   transform="translate(105.000000, 0.000000)">
                        <path d="M17.7777778,0 L2.22222222,0 C1,0 0,1 0,2.22222222 L0,17.7777778 C0,19.0011111 1,20 2.22222222,20 L10,20 L10,12.2222222 L7.77777778,12.2222222 L7.77777778,9.47222222 L10,9.47222222 L10,7.19444444 C10,4.79 11.3466667,3.10111111 14.1844444,3.10111111 L16.1877778,3.10333333 L16.1877778,5.99777778 L14.8577778,5.99777778 C13.7533333,5.99777778 13.3333333,6.82666667 13.3333333,7.59555556 L13.3333333,9.47333333 L16.1866667,9.47333333 L15.5555556,12.2222222 L13.3333333,12.2222222 L13.3333333,20 L17.7777778,20 C19,20 20,19.0011111 20,17.7777778 L20,2.22222222 C20,1 19,0 17.7777778,0 Z"></path>
                    </g>
                </g>
            </g>
        </g>
    </g>
</svg>