
<svg width="20px" height="20px" viewBox="0 0 20 20" version="1.1" xmlns="http://www.w3.org/2000/svg" xmlns:xlink="http://www.w3.org/1999/xlink">

    <g stroke="none" stroke-width="1" fill="none" fill-rule="evenodd">
        <g transform="translate(-1785.000000, -611.000000)" fill="#FFFFFF">
            <g transform="translate(115.000000, 561.000000)">
                <g  transform="translate(1473.000000, 50.000000)">
                    <g transform="translate(197.000000, 0.000000)">
                        <path d="M19.9398444,5.87701111 C19.9232294,5.04743202 19.7660647,4.22667616 19.4750333,3.44964444 C19.2239327,2.78237823 18.8303058,2.17791388 18.3216,1.6784 C17.8220861,1.16969416 17.2176218,0.776067336 16.5503556,0.524966667 C15.7733238,0.233935348 14.952568,0.0767706109 14.1229889,0.0601555556 C13.0563667,0.0115333333 12.7158556,0 10,0 C7.28414444,0 6.94363333,0.0115333333 5.87701111,0.0601555556 C5.04743202,0.0767706109 4.22667616,0.233935348 3.44964444,0.524966667 C2.78237823,0.776067336 2.17791388,1.16969416 1.6784,1.6784 C1.16969416,2.17791388 0.776067336,2.78237823 0.524966667,3.44964444 C0.233935348,4.22667616 0.0767706109,5.04743202 0.0601555556,5.87701111 C0.0115333333,6.94363333 0,7.28414444 0,10 C0,12.7158556 0.0115333333,13.0563667 0.0601555556,14.1229889 C0.0767706109,14.952568 0.233935348,15.7733238 0.524966667,16.5503556 C0.776067336,17.2176218 1.16969416,17.8220861 1.6784,18.3216 C2.17789569,18.8303281 2.78236526,19.2239583 3.44964444,19.4750333 C4.22667616,19.7660647 5.04743202,19.9232294 5.87701111,19.9398444 C6.94363333,19.9885444 7.28414444,20 10,20 C12.7158556,20 13.0563667,19.9885444 14.1229889,19.9398444 C14.952568,19.9232294 15.7733238,19.7660647 16.5503556,19.4750333 C17.893616,18.9555209 18.9555098,17.8936271 19.4750222,16.5503667 C19.7660535,15.7733349 19.9232183,14.9525791 19.9398333,14.123 C19.9884667,13.0563667 20,12.7158556 20,10 C20,7.28414444 19.9884667,6.94363333 19.9398444,5.87701111 Z M18.1399222,14.0408667 C18.1324169,14.6749721 18.0159269,15.3030649 17.7955444,15.8976889 C17.4591631,16.769831 16.7698291,17.4591691 15.8976889,17.7955556 C15.3030628,18.0159303 14.6749714,18.13242 14.0408667,18.1399333 C12.9865222,18.188 12.6702889,18.1981778 10,18.1981778 C7.32971111,18.1981778 7.01347778,18.188 5.95913333,18.1399222 C5.32502929,18.1324125 4.69693786,18.0159265 4.10231111,17.7955556 C3.66794474,17.6352846 3.27503294,17.3796765 2.95247778,17.0475333 C2.62032922,16.7249761 2.36471714,16.3320603 2.20444444,15.8976889 C1.98406201,15.3030649 1.86757202,14.6749721 1.86006667,14.0408667 C1.812,12.9863778 1.80182222,12.6701556 1.80182222,10 C1.80182222,7.32984444 1.812,7.01362222 1.86007778,5.95913333 C1.86758751,5.32502929 1.98407348,4.69693786 2.20444444,4.10231111 C2.36471537,3.66794474 2.62032351,3.27503294 2.95246667,2.95247778 C3.2750239,2.62032922 3.66793972,2.36471714 4.10231111,2.20444444 C4.69693719,1.98406969 5.32502865,1.86757995 5.95913333,1.86006667 C7.01362222,1.812 7.32984444,1.80182222 10,1.80182222 C12.6701556,1.80182222 12.9863778,1.812 14.0408667,1.86007778 C14.6749714,1.86759106 15.3030628,1.9840808 15.8976889,2.20445556 C16.3320553,2.36472648 16.7249671,2.62033462 17.0475222,2.95247778 C17.3796694,3.27503181 17.6352814,3.6679437 17.7955556,4.10231111 C18.0159303,4.69693719 18.13242,5.32502865 18.1399333,5.95913333 C18.1880111,7.01357778 18.1981889,7.32991111 18.1981889,10 C18.1981889,12.6700889 18.188,12.9863778 18.1399222,14.0408667 L18.1399222,14.0408667 Z M10,4.86484444 C7.1639319,4.86484444 4.86484444,7.1639319 4.86484444,10 C4.86484444,12.8360681 7.1639319,15.1351556 10,15.1351556 C12.8360681,15.1351556 15.1351556,12.8360681 15.1351556,10 C15.1351249,7.16394461 12.8360554,4.86487513 10,4.86484444 L10,4.86484444 Z M10,13.3333333 C8.15905083,13.3333333 6.66666667,11.8409492 6.66666667,10 C6.66666667,8.15905083 8.15905083,6.66666667 10,6.66666667 C11.8409492,6.66666667 13.3333333,8.15905083 13.3333333,10 C13.3333333,10.884055 12.9821439,11.7319013 12.3570226,12.3570226 C11.7319013,12.9821439 10.884055,13.3333333 10,13.3333333 Z M16.5380222,4.662 C16.5380222,5.3247417 16.0007639,5.862 15.3380222,5.862 C14.6752805,5.862 14.1380222,5.3247417 14.1380222,4.662 C14.1380222,3.9992583 14.6752805,3.462 15.3380222,3.462 C16.0007639,3.462 16.5380222,3.9992583 16.5380222,4.662 L16.5380222,4.662 Z"></path>
                    </g>
                </g>
            </g>
        </g>
    </g>
</svg>