
<svg width="21px" height="18px" viewBox="0 0 21 18" version="1.1" xmlns="http://www.w3.org/2000/svg" xmlns:xlink="http://www.w3.org/1999/xlink">

    <g stroke="none" stroke-width="1" fill="none" fill-rule="evenodd">
        <g transform="translate(-1589.000000, -613.000000)" fill="#FFFFFF">
            <g transform="translate(115.000000, 561.000000)">
                <g  transform="translate(1473.000000, 50.000000)">
                    <g transform="translate(0.000000, 2.000000)">
						<path d="M19.24,4.71777778 C19.2488889,4.89777778 19.2522222,5.08 19.2522222,5.26 C19.2522222,10.8044444 15.0333333,17.1955556 7.31888889,17.1955556 C4.94888889,17.1955556 2.74555556,16.5011111 0.888888889,15.31 C1.21777778,15.3488889 1.55111111,15.3688889 1.88888889,15.3688889 C3.85555556,15.3688889 5.66333333,14.6977778 7.09777778,13.5744444 C5.26333333,13.54 3.71333333,12.3288889 3.18,10.6622222 C3.43555556,10.71 3.69888889,10.7355556 3.96888889,10.7355556 C4.35222222,10.7355556 4.72333333,10.6855556 5.07444444,10.59 C3.15555556,10.2033333 1.71,8.50888889 1.71,6.47555556 L1.71,6.42333333 C2.27555556,6.73777778 2.92333333,6.92666667 3.61,6.94888889 C2.48444444,6.19555556 1.74333333,4.91333333 1.74333333,3.45666667 C1.74333333,2.68888889 1.95,1.96777778 2.31222222,1.34777778 C4.38,3.88666667 7.47222222,5.55555556 10.9577778,5.73111111 C10.8866667,5.42333333 10.85,5.10444444 10.85,4.77444444 C10.85,2.45888889 12.7266667,0.582222222 15.0433333,0.582222222 C16.25,0.582222222 17.34,1.09 18.1055556,1.90555556 C19.06,1.71666667 19.9577778,1.36777778 20.7688889,0.887777778 C20.4555556,1.86666667 19.79,2.68888889 18.9244444,3.20777778 C19.7733333,3.10555556 20.58,2.88222222 21.3333333,2.54777778 C20.7711111,3.39 20.06,4.12777778 19.24,4.71777778 Z"></path>
                    </g>
                </g>
            </g>
        </g>
    </g>
</svg>