
<svg width="24px" height="17px" viewBox="0 0 24 17" version="1.1" xmlns="http://www.w3.org/2000/svg" xmlns:xlink="http://www.w3.org/1999/xlink">

    <g stroke="none" stroke-width="1" fill="none" fill-rule="evenodd">
        <g transform="translate(-1640.000000, -613.000000)" fill="#FFFFFF">
            <g  transform="translate(115.000000, 561.000000)">
                <g  transform="translate(1473.000000, 50.000000)">
                    <g  transform="translate(52.000000, 2.000000)">
                        <path d="M23.4984545,2.64040909 C24,4.52413636 24,8.45454545 24,8.45454545 C24,8.45454545 24,12.3848182 23.4984545,14.2688182 C23.2224545,15.3080455 22.4093182,16.1265 21.3765,16.4044091 C19.5050455,16.9090909 12,16.9090909 12,16.9090909 C12,16.9090909 4.49495455,16.9090909 2.62336364,16.4044091 C1.59068182,16.1265 0.777409091,15.3080455 0.501409091,14.2688182 C0,12.3848182 0,8.45454545 0,8.45454545 C0,8.45454545 0,4.52413636 0.501409091,2.64040909 C0.777409091,1.60104545 1.59068182,0.782590909 2.62336364,0.504818182 C4.49495455,0 12,0 12,0 C12,0 19.5050455,0 21.3765,0.504818182 C22.4093182,0.782590909 23.2224545,1.60104545 23.4984545,2.64040909 Z M9.54541364,12.0230591 L15.8181409,8.45469545 L9.54541364,4.88605909 L9.54541364,12.0230591 Z"></path>
                    </g>
                </g>
            </g>
        </g>
    </g>
</svg>